<svg xmlns="http://www.w3.org/2000/svg" shape-rendering="geometricPrecision" text-rendering="geometricPrecision" image-rendering="optimizeQuality" fill-rule="evenodd" clip-rule="evenodd" viewBox="0 0 512 420.165"><path fill-rule="nonzero" d="M74.316 0h363.368C478.548 0 512 33.458 512 74.316v271.533c0 40.815-33.502 74.316-74.316 74.316H74.316C33.439 420.165 0 386.689 0 345.849V74.316C0 33.408 33.408 0 74.316 0zm147.282 245.364h-30.152v32.987h-41.935V141.82h68.811c31.309 0 46.97 16.819 46.97 50.462 0 18.497-4.081 32.182-12.237 41.069-3.059 3.35-7.282 6.192-12.669 8.52-5.382 2.329-11.655 3.493-18.788 3.493zm-30.152-68.594v33.644h11.803c5.245 0 9.066-.551 11.469-1.641 2.396-1.09 3.604-3.604 3.604-7.536v-15.29c0-3.932-1.208-6.446-3.604-7.536-2.403-1.09-6.23-1.641-11.469-1.641h-11.803zm180.882 101.581h-87.381V141.82h43.688v101.581h43.693v34.95zm65.356-242.422H74.316c-21.079 0-38.387 17.307-38.387 38.387v271.533c0 21.104 17.252 38.387 38.387 38.387h363.368c21.153 0 38.387-17.233 38.387-38.387V74.316c0-21.092-17.289-38.387-38.387-38.387z"/></svg>